<mxfile host="app.diagrams.net" modified="2024-05-31T13:14:01.278Z" agent="Mozilla/5.0 (Windows NT 10.0; Win64; x64) AppleWebKit/537.36 (KHTML, like Gecko) Chrome/125.0.0.0 Safari/537.36 Edg/125.0.0.0" etag="PBkgCeJZTeGvI8yCKkHZ" version="24.4.0" type="device">
  <diagram name="Page-1" id="PezXZgMnn7hwswySjlGL">
    <mxGraphModel dx="996" dy="577" grid="1" gridSize="10" guides="1" tooltips="1" connect="1" arrows="1" fold="1" page="1" pageScale="1" pageWidth="850" pageHeight="1100" math="0" shadow="0">
      <root>
        <mxCell id="0" />
        <mxCell id="1" parent="0" />
        <mxCell id="bQOA3nePforxI_J_57UJ-18" value="" style="rounded=1;whiteSpace=wrap;html=1;strokeColor=default;shadow=0;dashed=1;" vertex="1" parent="1">
          <mxGeometry x="308" y="40" width="400" height="290" as="geometry" />
        </mxCell>
        <mxCell id="bQOA3nePforxI_J_57UJ-1" value="" style="rounded=1;whiteSpace=wrap;html=1;fixDash=0;dashed=1;" vertex="1" parent="1">
          <mxGeometry x="62" y="100" width="165" height="200" as="geometry" />
        </mxCell>
        <mxCell id="bQOA3nePforxI_J_57UJ-2" value="USER MACHINE" style="text;html=1;align=center;verticalAlign=middle;resizable=0;points=[];autosize=1;strokeColor=none;fillColor=none;" vertex="1" parent="1">
          <mxGeometry x="85" y="110" width="120" height="30" as="geometry" />
        </mxCell>
        <mxCell id="bQOA3nePforxI_J_57UJ-5" value="" style="rounded=1;whiteSpace=wrap;html=1;opacity=40;align=center;verticalAlign=middle;fontFamily=Helvetica;fontSize=12;fontColor=default;fillColor=#8d88dd;strokeColor=none;" vertex="1" parent="1">
          <mxGeometry x="79.5" y="145" width="130.5" height="135" as="geometry" />
        </mxCell>
        <mxCell id="bQOA3nePforxI_J_57UJ-4" value="WEB&lt;div&gt;BROWSER&lt;/div&gt;" style="text;html=1;align=center;verticalAlign=middle;resizable=0;points=[];autosize=1;strokeColor=none;fillColor=none;" vertex="1" parent="1">
          <mxGeometry x="99.5" y="145" width="90" height="40" as="geometry" />
        </mxCell>
        <mxCell id="bQOA3nePforxI_J_57UJ-7" value="HTML/CSS" style="rounded=1;whiteSpace=wrap;html=1;fillColor=#dae8fc;strokeColor=#6c8ebf;" vertex="1" parent="1">
          <mxGeometry x="94.5" y="205" width="100" height="40" as="geometry" />
        </mxCell>
        <mxCell id="bQOA3nePforxI_J_57UJ-8" value="" style="rounded=1;whiteSpace=wrap;html=1;fixDash=0;strokeColor=none;fillColor=#838181;opacity=40;" vertex="1" parent="1">
          <mxGeometry x="330" y="100" width="165" height="200" as="geometry" />
        </mxCell>
        <mxCell id="bQOA3nePforxI_J_57UJ-9" value="EC2 INSTANCE" style="text;html=1;align=center;verticalAlign=middle;resizable=0;points=[];autosize=1;strokeColor=none;fillColor=none;" vertex="1" parent="1">
          <mxGeometry x="358" y="110" width="110" height="30" as="geometry" />
        </mxCell>
        <mxCell id="bQOA3nePforxI_J_57UJ-10" value="" style="rounded=1;whiteSpace=wrap;html=1;opacity=40;align=center;verticalAlign=middle;fontFamily=Helvetica;fontSize=12;fontColor=default;fillColor=#8d88dd;" vertex="1" parent="1">
          <mxGeometry x="347.5" y="145" width="130.5" height="135" as="geometry" />
        </mxCell>
        <mxCell id="bQOA3nePforxI_J_57UJ-11" value="WEB&lt;div&gt;APPLICATION&lt;/div&gt;" style="text;html=1;align=center;verticalAlign=middle;resizable=0;points=[];autosize=1;strokeColor=none;fillColor=none;" vertex="1" parent="1">
          <mxGeometry x="362.5" y="145" width="100" height="40" as="geometry" />
        </mxCell>
        <mxCell id="bQOA3nePforxI_J_57UJ-12" value="FLASK" style="rounded=1;whiteSpace=wrap;html=1;fillColor=#dae8fc;strokeColor=#6c8ebf;" vertex="1" parent="1">
          <mxGeometry x="362.5" y="205" width="100" height="40" as="geometry" />
        </mxCell>
        <mxCell id="bQOA3nePforxI_J_57UJ-13" value="" style="rounded=1;whiteSpace=wrap;html=1;fixDash=0;opacity=40;align=center;verticalAlign=middle;fontFamily=Helvetica;fontSize=12;fontColor=default;fillColor=#838181;strokeColor=none;" vertex="1" parent="1">
          <mxGeometry x="520" y="100" width="165" height="200" as="geometry" />
        </mxCell>
        <mxCell id="bQOA3nePforxI_J_57UJ-14" value="S3 BUCKET" style="text;html=1;align=center;verticalAlign=middle;resizable=0;points=[];autosize=1;strokeColor=none;fillColor=none;" vertex="1" parent="1">
          <mxGeometry x="558" y="110" width="90" height="30" as="geometry" />
        </mxCell>
        <mxCell id="bQOA3nePforxI_J_57UJ-15" value="" style="rounded=1;whiteSpace=wrap;html=1;opacity=40;align=center;verticalAlign=middle;fontFamily=Helvetica;fontSize=12;fontColor=default;fillColor=#8d88dd;" vertex="1" parent="1">
          <mxGeometry x="537.5" y="145" width="130.5" height="135" as="geometry" />
        </mxCell>
        <mxCell id="bQOA3nePforxI_J_57UJ-16" value="MODELS" style="text;html=1;align=center;verticalAlign=middle;resizable=0;points=[];autosize=1;strokeColor=none;fillColor=none;" vertex="1" parent="1">
          <mxGeometry x="567.5" y="150" width="70" height="30" as="geometry" />
        </mxCell>
        <mxCell id="bQOA3nePforxI_J_57UJ-17" value="Non-Luxury" style="rounded=1;whiteSpace=wrap;html=1;fillColor=#dae8fc;strokeColor=#6c8ebf;" vertex="1" parent="1">
          <mxGeometry x="553" y="230" width="100" height="40" as="geometry" />
        </mxCell>
        <mxCell id="bQOA3nePforxI_J_57UJ-19" value="AWS" style="text;html=1;align=center;verticalAlign=middle;resizable=0;points=[];autosize=1;strokeColor=none;fillColor=none;" vertex="1" parent="1">
          <mxGeometry x="473" y="50" width="50" height="30" as="geometry" />
        </mxCell>
        <mxCell id="bQOA3nePforxI_J_57UJ-20" value="Luxury" style="rounded=1;whiteSpace=wrap;html=1;fillColor=#dae8fc;strokeColor=#6c8ebf;" vertex="1" parent="1">
          <mxGeometry x="553" y="180" width="100" height="40" as="geometry" />
        </mxCell>
        <mxCell id="bQOA3nePforxI_J_57UJ-22" style="edgeStyle=orthogonalEdgeStyle;rounded=0;orthogonalLoop=1;jettySize=auto;html=1;exitX=1;exitY=0.5;exitDx=0;exitDy=0;entryX=0;entryY=0.5;entryDx=0;entryDy=0;" edge="1" parent="1" source="bQOA3nePforxI_J_57UJ-12" target="bQOA3nePforxI_J_57UJ-17">
          <mxGeometry relative="1" as="geometry" />
        </mxCell>
        <mxCell id="bQOA3nePforxI_J_57UJ-23" style="edgeStyle=orthogonalEdgeStyle;rounded=0;orthogonalLoop=1;jettySize=auto;html=1;exitX=1;exitY=0.5;exitDx=0;exitDy=0;" edge="1" parent="1" source="bQOA3nePforxI_J_57UJ-12" target="bQOA3nePforxI_J_57UJ-20">
          <mxGeometry relative="1" as="geometry" />
        </mxCell>
        <mxCell id="bQOA3nePforxI_J_57UJ-25" style="edgeStyle=orthogonalEdgeStyle;rounded=0;orthogonalLoop=1;jettySize=auto;html=1;exitX=1;exitY=0.5;exitDx=0;exitDy=0;entryX=0;entryY=0.5;entryDx=0;entryDy=0;" edge="1" parent="1" source="bQOA3nePforxI_J_57UJ-7" target="bQOA3nePforxI_J_57UJ-12">
          <mxGeometry relative="1" as="geometry" />
        </mxCell>
      </root>
    </mxGraphModel>
  </diagram>
</mxfile>
